# xmcd CD database file
# Generated: Sat Dec 1 22:02:34 2001 by KSCD
# 
# Track frame offsets:
#       150
#       9157
#       34100
#       49922
#       61325
#       77510
#       89832
#       121410
#       138727
#       146607
#       155350
#
# Disc length: 2275 seconds
#
# Revision: 3
# Processed by: cddbd v1.4PL0 Copyright (c) Steve Scherf et al.
# Submitted via: Kscd 1.3.2
#
DISCID=9108e10b
DTITLE=Caetano e Chico - Caetano e Chico Juntos e Ao Vivo 
DYEAR=1900
DGENRE=
TTITLE0=Bom Conselho
TTITLE1=Partido Alto
TTITLE2=Tropic lia
TTITLE3=Morena Dos Olhos D' gua
TTITLE4=Rita
TTITLE5=Atr s Da Porta
TTITLE6=Voc  N o Entende Nada  - Cotidiano
TTITLE7=B rbara
TTITLE8=Ana De Amsterdam
TTITLE9=Janelas Abertas n# 2
TTITLE10=Os Argonautas
EXTD=
EXTT0=
EXTT1=
EXTT2=
EXTT3=
EXTT4=Esse Cara\n
EXTT5=
EXTT6=Cotidiano\n
EXTT7=
EXTT8=
EXTT9=
EXTT10=
PLAYORDER=
